<?xml version="1.0" encoding="UTF-8"?>
<svg id="_Слой_1" data-name="Слой_1" xmlns="http://www.w3.org/2000/svg" version="1.1" viewBox="0 0 32 32">
  <!-- Generator: Adobe Illustrator 29.3.1, SVG Export Plug-In . SVG Version: 2.1.0 Build 151)  -->
  <defs>
    <style>
      .st0 {
        fill: #06112d;
      }

      .st1 {
        fill: #1aa5e2;
      }

      .st2 {
        fill: #fff;
      }

      .st3 {
        fill: #040430;
      }

      .st4 {
        fill: #006c9b;
      }
    </style>
  </defs>
  <circle class="st1" cx="16" cy="16" r="16"/>
  <path class="st4" d="M21.26,29.37c-.73,0-1.39-.3-1.86-.78-.48.48-1.14.78-1.86.78-.02,0-.03,0-.05,0-.7-.01-1.34-.31-1.81-.78-.48.48-1.14.78-1.87.78-1.45,0-2.63-1.18-2.63-2.63v-8.25l-1.31-.36c-2.66-.74-4.63-2.88-5.15-5.59l-.32-1.67c-.13-.66.01-1.34.4-1.89.38-.56.96-.93,1.63-1.04.14-.02.28-.04.42-.04,1.2,0,2.24.87,2.47,2.06l.09.44c1.35-2.99,4.62-5.11,8.43-5.11,1.81,0,3.55.47,5.04,1.37.02,0,.14.07.14.07h0c.89.47,1.65,1.15,2.22,1.99.68,1,1.04,2.18,1.04,3.39,0,.58-.08,1.15-.24,1.71-.07.23-.15.45-.24.66l.59.78c1.35,1.79,1.76,4.14,1.09,6.28l-.33,1.06c-.33,1.05-1.29,1.76-2.38,1.76-.28,0-.56-.05-.83-.14v2.48c0,1.45-1.16,2.65-2.59,2.68-.02,0-.03,0-.05,0Z"/>
  <path class="st2" d="M19.68,28.48c-.73,0-1.39-.3-1.86-.78-.48.48-1.14.78-1.86.78-.02,0-.03,0-.05,0-.7-.01-1.34-.31-1.81-.78-.48.48-1.14.78-1.87.78-1.45,0-2.63-1.18-2.63-2.63v-8.25l-1.31-.36c-2.66-.74-4.63-2.88-5.15-5.59l-.32-1.67c-.13-.66.01-1.34.4-1.89.38-.56.96-.93,1.63-1.04.14-.02.28-.04.42-.04,1.2,0,2.24.87,2.47,2.06l.09.44c1.35-2.99,4.62-5.11,8.43-5.11,1.81,0,3.55.47,5.04,1.37.02,0,.14.07.14.07h0c.89.47,1.65,1.15,2.22,1.99.68,1,1.04,2.18,1.04,3.39,0,.58-.08,1.15-.24,1.71-.07.23-.15.45-.24.66l.59.78c1.35,1.79,1.76,4.14,1.09,6.28l-.33,1.06c-.33,1.05-1.29,1.76-2.38,1.76-.28,0-.56-.05-.83-.14v2.48c0,1.45-1.16,2.65-2.59,2.68-.02,0-.03,0-.05,0Z"/>
  <path class="st3" d="M23.71,15.15l-1.08-1.44s.05-.07.07-.11c.19-.33.35-.68.46-1.06.12-.42.19-.87.19-1.34,0-.98-.3-1.89-.81-2.65-.47-.7-1.13-1.27-1.9-1.63,0,0,0,0,0,0-1.25-.76-2.77-1.21-4.4-1.21-4.29,0-7.76,3.06-7.76,6.83,0,.28.02.56.06.84-.92-.5-1.58-1.38-1.78-2.44l-.32-1.63c-.12-.64-.73-1.09-1.37-.98s-1.08.74-.96,1.39l.32,1.67c.43,2.21,2.04,3.96,4.21,4.57l2.27.63v9.25c0,.73.59,1.32,1.32,1.32s1.32-.59,1.32-1.32v-9.57c0-.29.21-.54.49-.57.33-.03.6.22.6.55v9.55c0,.73.57,1.35,1.29,1.36s1.34-.58,1.34-1.32v-9.59c0-.3.25-.55.55-.55h0c.3,0,.55.25.55.55v9.59c0,.73.6,1.33,1.34,1.32s1.29-.63,1.29-1.36v-7.87s0-1.09,0-1.09c0-.44.56-.63.83-.28h0c.64.85.83,1.96.52,2.97l-.32,1.03c-.18.59.09,1.24.67,1.48.15.06.3.09.45.09.5,0,.97-.32,1.13-.83l.33-1.06c.54-1.74.21-3.64-.89-5.1Z"/>
  <ellipse class="st2" cx="12.42" cy="11.5" rx="2.08" ry="1.83"/>
  <ellipse class="st0" cx="11.74" cy="11.18" rx=".45" ry=".75"/>
  <ellipse class="st2" cx="18.2" cy="11.5" rx="2.28" ry="1.95"/>
  <ellipse class="st0" cx="17.5" cy="11.17" rx=".49" ry=".79"/>
</svg>